<?xml version="1.0" encoding="utf-8"?>
<!-- Generator: Adobe Illustrator 21.0.0, SVG Export Plug-In . SVG Version: 6.00 Build 0)  -->
<svg version="1.1" id="Layer_1" xmlns="http://www.w3.org/2000/svg" xmlns:xlink="http://www.w3.org/1999/xlink" x="0px" y="0px"
	 viewBox="0 0 439 206" style="enable-background:new 0 0 439 206;" xml:space="preserve">
<style type="text/css">
	.st0{fill:#FFFFFF;}
</style>
<g>
	<g>
		<path class="st0" d="M19.5,178.8c-3.4,0-7.1,1.3-7.1,5.3c0,3.3,2.8,4.8,5.6,4.8c2.7,0,5-1,6.6-2.7c0.2,1.8,1.4,2.5,2.8,2.5
			c0.6,0,1.2-0.1,1.7-0.3v-1.5c-0.4,0.1-0.8,0.2-1.2,0.2c-0.8,0-1.4-0.3-1.4-1.4v-6.9c0-4.3-2.6-6.7-6.8-6.7c-2.6,0-4.7,0.6-6,1
			l0,1.9c1.3-0.6,3.3-1.1,5.8-1.1c3.3,0,5.1,1.9,5.1,4.7v1.1C23,179.1,21.2,178.8,19.5,178.8z M24.6,184c-1.4,2-3.8,3.2-6.2,3.2
			c-2,0-4-1-4-3.2c0-2.7,2.8-3.6,5.4-3.6c1.6,0,3.4,0.3,4.8,0.7V184z"/>
		<path class="st0" d="M99.2,194.5c-2.2,0-4.3-0.6-6.2-1.6v1.9c1.9,1,4.1,1.5,6.5,1.5c4.4,0,8.6-2.3,8.6-7.8l0-16.1h-1.7v3.3
			c-1.4-2.1-3.7-3.7-6.9-3.7c-4.6,0-8,3.5-8,8.4c0,5,3.5,8.4,8,8.4c3.2,0,5.5-1.6,6.7-3.6v3.2C106.1,192.9,102.8,194.5,99.2,194.5z
			 M99.7,187.1c-3.6,0-6.3-2.6-6.3-6.7c0-4.2,2.8-6.7,6.4-6.7c3.1,0,5.5,2.1,6.5,4.5v4.6C105.2,185.1,102.8,187.1,99.7,187.1z"/>
		<path class="st0" d="M180.6,172c-3.9,0-8,2.9-8,8.4c0,5.8,4.2,8.4,8.9,8.4c2,0,4.1-0.4,5.5-1.2v-1.9c-1.4,0.8-3.3,1.3-5.3,1.3
			c-3.6,0-7-1.7-7.2-5.8H188C188.8,177.1,186.8,172,180.6,172z M186.3,179.6h-11.7c0.2-3.8,3-5.9,6.2-5.9
			C185.3,173.7,186.6,177.3,186.3,179.6z"/>
		<path class="st0" d="M252.7,172.4l0,16.1h1.9v-11.1c1.1-1.8,3.1-3.7,5.9-3.7c2.8,0,4.8,1.7,4.8,5v9.7h1.9v-9.9
			c0-4-2.8-6.6-6.6-6.6c-2.9,0-5.2,1.7-6.2,3.3v-2.9H252.7z"/>
		<path class="st0" d="M340.1,188.9c2,0,3.7-0.4,5.3-1.1v-1.9c-1.4,0.8-3.2,1.3-5,1.3c-3.5,0-6.8-2.1-6.8-6.6c0-4.8,3.6-6.7,7-6.7
			c1.7,0,3.4,0.5,4.6,1.4v-1.8c-1.4-0.9-3.2-1.3-4.9-1.3c-4.2,0-8.7,2.6-8.7,8.5C331.7,186.3,336,188.9,340.1,188.9z"/>
		<path class="st0" d="M410.5,194.6c-0.5,0-1-0.1-1.5-0.2v1.7c0.6,0.1,1.2,0.2,1.7,0.2c2.2,0,4.1-1.4,5.8-5.1l8.2-18.8h-2l-6,14
			l-6.9-14h-2l7.9,16.2l-0.8,1.9C413.7,193.3,412.4,194.6,410.5,194.6z"/>
	</g>
	<g>
		<polygon class="st0" points="67.4,120.5 31.7,120.5 31.7,88.1 57.8,88.1 57.8,68.7 31.7,68.7 31.7,36.4 67.4,36.4 67.4,14.2 
			12.4,14.2 12.4,142.6 67.4,142.6 		"/>
		<polygon class="st0" points="241.4,110.8 225.3,14.3 205,14.3 227.9,142.6 254.6,142.6 277.9,14.3 257.6,14.3 		"/>
		<polygon class="st0" points="290.6,14.3 290.6,142.6 345.6,142.6 345.6,120.6 309.9,120.6 309.9,88.2 336,88.2 336,68.7 
			309.9,68.7 309.9,36.5 345.6,36.5 345.6,14.3 		"/>
		<polygon class="st0" points="137.4,14.3 137.3,142.6 192.4,142.6 192.4,120.5 156.7,120.5 156.7,88.1 182.8,88.1 182.8,68.7 
			156.7,68.7 156.7,36.4 192.4,36.4 192.4,14.3 137.4,14.2 		"/>
		<polygon class="st0" points="377.6,68.8 405.7,142.6 425,142.6 425,14.3 405.7,14.3 405.7,88 377.7,14.3 358.3,14.3 358.3,142.6 
			377.6,142.6 		"/>
		<polygon class="st0" points="93.4,142.6 115.2,142.6 115.2,36.4 101.8,36.4 101.8,14.4 93.3,14.3 80.1,14.4 80.1,36.4 93.5,36.4 
					"/>
	</g>
</g>
</svg>
